<?xml version="1.0" encoding="UTF-8" standalone="no"?>
<!-- Created with Inkscape (http://www.inkscape.org/) -->

<svg
   width="191.71074"
   height="192.07123"
   viewBox="0 0 50.723464 50.818847"
   version="1.1"
   id="svg1"
   xml:space="preserve"
   xmlns:xlink="http://www.w3.org/1999/xlink"
   xmlns="http://www.w3.org/2000/svg"
   xmlns:svg="http://www.w3.org/2000/svg"><defs
     id="defs1"><linearGradient
       id="linearGradient8"><stop
         style="stop-color:#78bbc8;stop-opacity:1;"
         offset="0"
         id="stop8" /><stop
         style="stop-color:#98dff3;stop-opacity:1;"
         offset="1"
         id="stop9" /></linearGradient><linearGradient
       id="linearGradient5"><stop
         style="stop-color:#98dff3;stop-opacity:1;"
         offset="0"
         id="stop5" /><stop
         style="stop-color:#78bbc8;stop-opacity:1;"
         offset="1"
         id="stop6" /></linearGradient><linearGradient
       xlink:href="#linearGradient5"
       id="linearGradient7"
       gradientUnits="userSpaceOnUse"
       x1="1036.7473"
       y1="240.02559"
       x2="1407.6342"
       y2="753.17365"
       gradientTransform="matrix(0.05636276,0,0,0.05636276,-0.47008386,168.13037)" /><linearGradient
       xlink:href="#linearGradient8"
       id="linearGradient9"
       x1="1096.4156"
       y1="413.06387"
       x2="1542.8823"
       y2="1113.1729"
       gradientUnits="userSpaceOnUse"
       gradientTransform="matrix(0.05636276,0,0,0.05636276,-0.47008386,169.90609)" /></defs><g
     id="layer1"
     transform="translate(-41.596891,-173.73745)"><path
       id="path29"
       style="fill:url(#linearGradient9);stroke-width:0.225451;stroke-linejoin:round"
       d="m 85.72323,193.11035 c 0.680079,1.63219 5.981448,0.70534 6.350032,2.4347 0.368584,1.72936 -4.849987,3.04467 -4.80545,4.81231 0.04454,1.76764 5.32273,2.81846 5.041711,4.56418 -0.281024,1.74573 -5.622337,1.08705 -6.219354,2.75142 -0.597011,1.66437 3.945156,4.55092 3.052483,6.07725 -0.892673,1.52633 -5.635363,-1.01738 -6.793302,0.31893 -1.157933,1.33631 2.034769,5.66876 0.651001,6.76955 -1.383768,1.10078 -4.887299,-2.98441 -6.449771,-2.15663 -1.562477,0.82777 -0.150432,6.02101 -1.838406,6.54758 -1.687975,0.52658 -3.479178,-4.54837 -5.235171,-4.34092 -1.755993,0.20745 -2.315314,5.56008 -4.079525,5.44133 -1.764211,-0.11875 -1.601176,-5.49805 -3.313527,-5.93895 -1.712352,-0.4409 -4.167497,4.34823 -5.769676,3.6002 -1.602183,-0.74804 0.493073,-5.7052 -0.944376,-6.7349 -1.43745,-1.0297 -5.456839,2.54914 -6.680607,1.27284 -1.223768,-1.2763 2.520733,-5.14182 1.552321,-6.62125 -0.968412,-1.47943 -6.009204,0.40576 -6.689282,-1.22643 -0.680078,-1.63218 4.207952,-3.884 3.839368,-5.61336 -0.368585,-1.72936 -5.749993,-1.79242 -5.794533,-3.56006 -0.04454,-1.76764 5.326863,-2.10164 5.607885,-3.84737 0.281022,-1.74573 -4.714213,-3.74852 -4.117199,-5.41288 0.597014,-1.66437 5.726352,-0.0354 6.619027,-1.56177 0.892675,-1.52632 -3.041753,-5.19835 -1.883815,-6.53466 1.157938,-1.33631 5.352465,2.03555 6.736233,0.93476 1.383767,-1.10078 -0.958487,-5.94613 0.603988,-6.7739 1.562478,-0.82778 4.255699,3.83163 5.943674,3.30505 1.687974,-0.52658 1.254229,-5.89085 3.010222,-6.09829 1.755987,-0.20745 2.584176,5.11022 4.348387,5.22897 1.76421,0.11875 3.297548,-5.03997 5.009905,-4.59908 1.712351,0.4409 0.563645,5.69866 2.165824,6.44669 1.602184,0.74804 4.895523,-3.50842 6.332976,-2.47872 1.437447,1.0297 -1.533011,5.51745 -0.30924,6.79375 1.223765,1.2763 5.832328,-1.50304 6.800742,-0.0236 0.968408,1.47944 -3.422623,4.59109 -2.742545,6.22327 z" /><g
       id="g10"><path
         id="path6"
         style="fill:url(#linearGradient7);stroke-width:0.225451;stroke-linejoin:round"
         d="m 85.72323,191.33463 c 0.680079,1.63219 5.981448,0.70534 6.350032,2.4347 0.368584,1.72936 -4.849987,3.04467 -4.80545,4.81231 0.04454,1.76764 5.32273,2.81846 5.041711,4.56418 -0.281024,1.74573 -5.622337,1.08705 -6.219354,2.75142 -0.597011,1.66437 3.945156,4.55092 3.052483,6.07725 -0.892673,1.52633 -5.635363,-1.01738 -6.793302,0.31893 -1.157933,1.33631 2.034769,5.66876 0.651001,6.76955 -1.383768,1.10078 -4.887299,-2.98441 -6.449771,-2.15663 -1.562477,0.82777 -0.150432,6.02101 -1.838406,6.54758 -1.687975,0.52658 -3.479178,-4.54837 -5.235171,-4.34092 -1.755993,0.20745 -2.315314,5.56008 -4.079525,5.44133 -1.764211,-0.11875 -1.601176,-5.49805 -3.313527,-5.93895 -1.712352,-0.4409 -4.167497,4.34823 -5.769676,3.6002 -1.602183,-0.74804 0.493073,-5.7052 -0.944376,-6.7349 -1.43745,-1.0297 -5.456839,2.54914 -6.680607,1.27284 -1.223768,-1.2763 2.520733,-5.14182 1.552321,-6.62125 -0.968412,-1.47943 -6.009204,0.40576 -6.689282,-1.22643 -0.680078,-1.63218 4.207952,-3.884 3.839368,-5.61336 -0.368585,-1.72936 -5.749993,-1.79242 -5.794533,-3.56006 -0.04454,-1.76764 5.326863,-2.10164 5.607885,-3.84737 0.281022,-1.74573 -4.714213,-3.74852 -4.117199,-5.41288 0.597014,-1.66437 5.726352,-0.0354 6.619027,-1.56177 0.892675,-1.52632 -3.041753,-5.19835 -1.883815,-6.53466 1.157938,-1.33631 5.352465,2.03555 6.736233,0.93476 1.383767,-1.10078 -0.958487,-5.94613 0.603988,-6.7739 1.562478,-0.82778 4.255699,3.83163 5.943674,3.30505 1.687974,-0.52658 1.254229,-5.89085 3.010222,-6.09829 1.755987,-0.20745 2.584176,5.11022 4.348387,5.22897 1.76421,0.11875 3.297548,-5.03997 5.009905,-4.59908 1.712351,0.4409 0.563645,5.69866 2.165824,6.44669 1.602184,0.74804 4.895523,-3.50842 6.332976,-2.47872 1.437447,1.0297 -1.533011,5.51745 -0.30924,6.79375 1.223765,1.2763 5.832328,-1.50304 6.800742,-0.0236 0.968408,1.47944 -3.422623,4.59109 -2.742545,6.22327 z" /><g
         id="g9"><path
           id="rect1"
           style="fill:#f9f9f9;stroke-width:0.602629;stroke-linecap:round;stroke-linejoin:round"
           d="m 52.727612,191.27149 h 10.328074 c 0.477788,0 8.962414,-3.40434 8.962414,-3.40434 0,0 2.339992,-0.77999 2.339992,0 v 22.55942 c 0,0.78 -2.339992,0 -2.339992,0 0,0 -8.484626,-4.72068 -8.962414,-4.72068 h -2.582018 v 4.72068 H 57.891649 55.30963 v -4.72068 h -2.582018 c -0.955576,0 -1.724865,-0.76929 -1.724865,-1.72487 v -10.98466 c 0,-0.95558 0.769289,-1.72487 1.724865,-1.72487 z" /><path
           style="font-weight:bold;font-size:57.1062px;font-family:'Lexend Deca';-inkscape-font-specification:'Lexend Deca Bold';text-align:center;letter-spacing:0px;word-spacing:0px;text-anchor:middle;fill:#f9f9f9;stroke-width:4.43414;stroke-linecap:round;stroke-linejoin:round"
           d="m 79.829036,200.36187 q 0.227822,-0.95567 0.478407,-1.97103 0.250584,-1.01536 0.54024,-1.99872 0.289656,-0.98336 0.625459,-1.86367 l 0.443939,-1.16379 2.521547,0.96187 -0.44394,1.16379 q -0.341495,0.89523 -0.786048,1.8366 -0.444546,0.94136 -0.933862,1.86566 -0.483618,0.90937 -0.953706,1.73845 z m -0.76793,4.25341 q -0.611735,-0.23335 -0.823986,-0.70744 -0.212266,-0.47407 0.03247,-1.11565 0.227659,-0.59681 0.728036,-0.83323 0.500376,-0.23641 1.082274,-0.0144 0.611736,0.23335 0.80339,0.71665 0.212258,0.47408 -0.03247,1.11565 -0.221973,0.5819 -0.722349,0.81831 -0.500377,0.23642 -1.067357,0.0201 z"
           id="text2"
           aria-label="!" /></g></g></g></svg>
