<svg width="0" height="0" class="hidden">
  <symbol xmlns="http://www.w3.org/2000/svg" viewBox="0 -960 960 960" id="add_a_photo">
    <path d="M440-440ZM120-120q-33 0-56.5-23.5T40-200v-480q0-33 23.5-56.5T120-760h126l74-80h240v80H355l-73 80H120v480h640v-360h80v360q0 33-23.5 56.5T760-120H120Zm640-560v-80h-80v-80h80v-80h80v80h80v80h-80v80h-80ZM440-260q75 0 127.5-52.5T620-440q0-75-52.5-127.5T440-620q-75 0-127.5 52.5T260-440q0 75 52.5 127.5T440-260Zm0-80q-42 0-71-29t-29-71q0-42 29-71t71-29q42 0 71 29t29 71q0 42-29 71t-71 29Z"></path>
  </symbol>
  <symbol version="1.1" id="comment" xml:space="preserve" xmlns="http://www.w3.org/2000/svg" xmlnsSvg="http://www.w3.org/2000/svg" viewBox="0 0 132.29166 132.29166">
    <defs id="defs1"></defs>
    <path id="rect1" d="m 23.039218,5.0525661 h 86.213222 c 7.44492,0 13.43851,5.9935769 13.43851,13.4385129 v 61.403658 c 0,7.444937 -5.99359,13.438513 -13.43851,13.438513 H 87.699131 L 28.517995,127.23964 44.592523,93.33325 H 23.039218 c -7.444936,0 -13.4385101,-5.993576 -13.4385101,-13.438513 V 18.491079 c 0,-7.444936 5.9935741,-13.4385129 13.4385101,-13.4385129 z"></path>
  </symbol>
  <symbol version="1.1" id="down_arrow" xml:space="preserve" xmlns="http://www.w3.org/2000/svg" xmlnsSvg="http://www.w3.org/2000/svg" viewBox="0 0 74.083329 132.29166">
    <defs id="defs1"></defs>
    <path id="rect1" d="M 69.879323,86.565217 36.918283,126.48472 4.2040178,86.871114 21.546299,86.564535 V 5.8071462 H 52.290271 V 86.564538 Z"></path>
  </symbol>
  <symbol xmlns="http://www.w3.org/2000/svg" viewBox="0 -960 960 960" id="edit">
    <path d="M200-200h57l391-391-57-57-391 391v57Zm-80 80v-170l528-527q12-11 26.5-17t30.5-6q16 0 31 6t26 18l55 56q12 11 17.5 26t5.5 30q0 16-5.5 30.5T817-647L290-120H120Zm640-584-56-56 56 56Zm-141 85-28-29 57 57-29-28Z"></path>
  </symbol>
  <symbol xmlns="http://www.w3.org/2000/svg" viewBox="0 0 500 500" id="plus">
    <path d="M250 112.312v275.376"></path>
    <path d="M250 112.312v275.376" transform="rotate(90 250 250)"></path>
  </symbol>
  <symbol xmlns="http://www.w3.org/2000/svg" viewBox="0 0 500 500" id="search">
    <g transform="rotate(-45 242.054 253.291)">
      <circle cx="250" cy="166.414" r="110.294"></circle>
      <path d="M250 276.997v180.048"></path>
    </g>
  </symbol>
  <symbol version="1.1" id="up_arrow" xml:space="preserve" xmlns="http://www.w3.org/2000/svg" xmlnsSvg="http://www.w3.org/2000/svg" viewBox="0 0 74.083329 132.29166">
    <defs id="defs1"></defs>
    <path id="rect1" d="M 4.2040067,45.726439 37.165047,5.8069362 69.879312,45.420542 52.537031,45.727121 V 126.48451 H 21.793059 V 45.727118 Z"></path>
  </symbol>
  <symbol xmlns="http://www.w3.org/2000/svg" fill="#fff" viewBox="0 -960 960 960" id="upload">
    <path d="M440-320v-326L336-542l-56-58 200-200 200 200-56 58-104-104v326h-80ZM240-160q-33 0-56.5-23.5T160-240v-120h80v120h480v-120h80v120q0 33-23.5 56.5T720-160H240Z"></path>
  </symbol>
  <symbol version="1.1" id="verified" xml:space="preserve" xmlns="http://www.w3.org/2000/svg" xmlnsSvg="http://www.w3.org/2000/svg" viewBox="0 0 132.29166 132.29166">
    <defs id="defs1"></defs>
    <g id="layer1" transform="matrix(24.380871,0,0,24.380871,-61.978774,-72.509903)">
      <path id="path1" d="M 5.2736726,3.0286419 C 5.1359889,3.0275963 4.9591864,3.2835255 4.8236552,3.3077969 4.6881238,3.3320684 4.4335,3.1533997 4.3047363,3.2021616 4.1759726,3.2509236 4.1035611,3.5534371 3.9859499,3.6250291 3.8683387,3.6966211 3.566367,3.6219971 3.4639132,3.7139811 3.3614596,3.8059651 3.4032214,4.1142162 3.3194142,4.2234597 3.2356069,4.3327034 2.9270602,4.3722048 2.8647534,4.4949878 2.8024466,4.617771 2.9527492,4.8901119 2.9140646,5.0222533 2.8753801,5.1543945 2.6019433,5.3026912 2.5881983,5.439691 2.5744533,5.5766904 2.8129799,5.7763462 2.8246425,5.9135389 2.8363051,6.0507314 2.6349032,6.2877903 2.6715764,6.4205037 c 0.036673,0.1327139 0.3312151,0.232726 0.3916498,0.3564418 0.060435,0.123715 -0.04173,0.4175191 0.040408,0.528023 0.082138,0.1105036 0.392921,0.097354 0.4939658,0.190884 0.1010449,0.093529 0.1119137,0.4044018 0.228424,0.4777719 0.1165104,0.07337 0.4015595,-0.051154 0.5295678,-4.401e-4 0.1280083,0.050712 0.2504398,0.3366664 0.3855866,0.3629937 0.135147,0.026327 0.3559562,-0.1927647 0.4936396,-0.1917189 0.1376837,0.00105 0.3551439,0.2234636 0.4906753,0.1991922 0.1355312,-0.024271 0.2622916,-0.3083316 0.3910551,-0.357094 0.1287637,-0.048762 0.4118893,0.080073 0.5295005,0.00848 0.1176116,-0.071591 0.1332042,-0.3822563 0.235658,-0.47424 0.1024537,-0.091984 0.412998,-0.07412 0.4968053,-0.1833632 C 7.4623196,7.2281907 7.3646244,6.9328657 7.4269311,6.8100828 7.4892379,6.6872997 7.7852691,6.5917788 7.8239535,6.4596373 7.862638,6.3274962 7.6648556,6.0874077 7.6786007,5.9504083 7.6923455,5.8134085 7.9338834,5.6173888 7.922221,5.4801961 7.9105582,5.3430036 7.6394076,5.1905796 7.6027344,5.0578658 7.5660612,4.9251522 7.7204718,4.6551217 7.660037,4.5314065 7.5996024,4.4076911 7.2916975,4.3635036 7.2095589,4.2529996 7.1274207,4.1424958 7.1738564,3.8349207 7.0728115,3.7413912 6.9717671,3.6478618 6.6686957,3.7178945 6.5521852,3.6445245 6.4356748,3.5711545 6.3678732,3.2675722 6.2398649,3.2168602 6.1118567,3.1661482 5.8545391,3.340927 5.7193918,3.3146 5.584245,3.2882725 5.411356,3.0296882 5.2736726,3.0286426 Z M 6.626977,4.5332857 c 0.1303595,0.00193 0.237594,0.1592748 0.1051366,0.2917322 L 4.9190595,6.6380802 C 4.7659569,6.7911838 4.6668204,6.7914142 4.481091,6.6056847 4.4026967,6.5272904 4.2459082,6.3705019 4.2459082,6.3705019 L 4.0107255,6.1353193 3.7755427,5.9001364 C 3.6077254,5.7323194 3.8404194,5.4946571 4.0107207,5.6649585 L 4.5398855,6.194116 C 4.714459,6.3686871 4.7129409,6.3738348 4.9504213,6.1363543 5.1358649,5.9509108 5.2860644,5.800711 5.4890556,5.5977199 5.692047,5.3947287 5.904834,5.1819417 6.0864646,5.000311 6.2680953,4.8186804 6.4185696,4.668206 6.4969355,4.5898401 6.5375072,4.5492684 6.5835238,4.5326422 6.626977,4.5332857 Z"></path>
    </g>
  </symbol>
</svg>