<?xml version="1.0" encoding="UTF-8" standalone="no"?>
<!-- Created with Inkscape (http://www.inkscape.org/) -->

<svg
   width="500"
   height="500"
   viewBox="0 0 132.29166 132.29166"
   version="1.1"
   id="svg1"
   xml:space="preserve"
   sodipodi:docname="verified_user.svg"
   inkscape:export-filename="Verification Mark2.svg"
   inkscape:export-xdpi="2.3039999"
   inkscape:export-ydpi="2.3039999"
   inkscape:version="1.3.1 (91b66b0783, 2023-11-16)"
   xmlns:inkscape="http://www.inkscape.org/namespaces/inkscape"
   xmlns:sodipodi="http://sodipodi.sourceforge.net/DTD/sodipodi-0.dtd"
   xmlns="http://www.w3.org/2000/svg"
   xmlns:svg="http://www.w3.org/2000/svg"><sodipodi:namedview
     id="namedview1"
     pagecolor="#ffffff"
     bordercolor="#000000"
     borderopacity="0.25"
     inkscape:showpageshadow="2"
     inkscape:pageopacity="0.0"
     inkscape:pagecheckerboard="0"
     inkscape:deskcolor="#d1d1d1"
     showgrid="false"
     inkscape:zoom="1.2316035"
     inkscape:cx="12.585219"
     inkscape:cy="221.25626"
     inkscape:window-width="2560"
     inkscape:window-height="1351"
     inkscape:window-x="-9"
     inkscape:window-y="-9"
     inkscape:window-maximized="1"
     inkscape:current-layer="svg1" /><defs
     id="defs1" /><g
     id="layer1"
     style="fill:#000000"
     transform="matrix(24.380871,0,0,24.380871,-61.978774,-72.509903)"><path
       id="path1"
       style="opacity:1;fill:#49b9ca;fill-opacity:1;stroke-width:0.0623816"
       d="M 5.2736726,3.0286419 C 5.1359889,3.0275963 4.9591864,3.2835255 4.8236552,3.3077969 4.6881238,3.3320684 4.4335,3.1533997 4.3047363,3.2021616 4.1759726,3.2509236 4.1035611,3.5534371 3.9859499,3.6250291 3.8683387,3.6966211 3.566367,3.6219971 3.4639132,3.7139811 3.3614596,3.8059651 3.4032214,4.1142162 3.3194142,4.2234597 3.2356069,4.3327034 2.9270602,4.3722048 2.8647534,4.4949878 2.8024466,4.617771 2.9527492,4.8901119 2.9140646,5.0222533 2.8753801,5.1543945 2.6019433,5.3026912 2.5881983,5.439691 2.5744533,5.5766904 2.8129799,5.7763462 2.8246425,5.9135389 2.8363051,6.0507314 2.6349032,6.2877903 2.6715764,6.4205037 c 0.036673,0.1327139 0.3312151,0.232726 0.3916498,0.3564418 0.060435,0.123715 -0.04173,0.4175191 0.040408,0.528023 0.082138,0.1105036 0.392921,0.097354 0.4939658,0.190884 0.1010449,0.093529 0.1119137,0.4044018 0.228424,0.4777719 0.1165104,0.07337 0.4015595,-0.051154 0.5295678,-4.401e-4 0.1280083,0.050712 0.2504398,0.3366664 0.3855866,0.3629937 0.135147,0.026327 0.3559562,-0.1927647 0.4936396,-0.1917189 0.1376837,0.00105 0.3551439,0.2234636 0.4906753,0.1991922 0.1355312,-0.024271 0.2622916,-0.3083316 0.3910551,-0.357094 0.1287637,-0.048762 0.4118893,0.080073 0.5295005,0.00848 0.1176116,-0.071591 0.1332042,-0.3822563 0.235658,-0.47424 0.1024537,-0.091984 0.412998,-0.07412 0.4968053,-0.1833632 C 7.4623196,7.2281907 7.3646244,6.9328657 7.4269311,6.8100828 7.4892379,6.6872997 7.7852691,6.5917788 7.8239535,6.4596373 7.862638,6.3274962 7.6648556,6.0874077 7.6786007,5.9504083 7.6923455,5.8134085 7.9338834,5.6173888 7.922221,5.4801961 7.9105582,5.3430036 7.6394076,5.1905796 7.6027344,5.0578658 7.5660612,4.9251522 7.7204718,4.6551217 7.660037,4.5314065 7.5996024,4.4076911 7.2916975,4.3635036 7.2095589,4.2529996 7.1274207,4.1424958 7.1738564,3.8349207 7.0728115,3.7413912 6.9717671,3.6478618 6.6686957,3.7178945 6.5521852,3.6445245 6.4356748,3.5711545 6.3678732,3.2675722 6.2398649,3.2168602 6.1118567,3.1661482 5.8545391,3.340927 5.7193918,3.3146 5.584245,3.2882725 5.411356,3.0296882 5.2736726,3.0286426 Z M 6.626977,4.5332857 c 0.1303595,0.00193 0.237594,0.1592748 0.1051366,0.2917322 L 4.9190595,6.6380802 C 4.7659569,6.7911838 4.6668204,6.7914142 4.481091,6.6056847 4.4026967,6.5272904 4.2459082,6.3705019 4.2459082,6.3705019 L 4.0107255,6.1353193 3.7755427,5.9001364 C 3.6077254,5.7323194 3.8404194,5.4946571 4.0107207,5.6649585 L 4.5398855,6.194116 C 4.714459,6.3686871 4.7129409,6.3738348 4.9504213,6.1363543 5.1358649,5.9509108 5.2860644,5.800711 5.4890556,5.5977199 5.692047,5.3947287 5.904834,5.1819417 6.0864646,5.000311 6.2680953,4.8186804 6.4185696,4.668206 6.4969355,4.5898401 6.5375072,4.5492684 6.5835238,4.5326422 6.626977,4.5332857 Z"
       sodipodi:nodetypes="csssssssssssssscsssssssssssssssssscccsssccccsssssc" /></g></svg>
